<?xml version="1.0" encoding="utf-8"?>
<!-- Generator: Adobe Illustrator 16.0.0, SVG Export Plug-In . SVG Version: 6.00 Build 0)  -->
<!DOCTYPE svg PUBLIC "-//W3C//DTD SVG 1.1//EN" "http://www.w3.org/Graphics/SVG/1.1/DTD/svg11.dtd">
<svg version="1.1" id="Layer_1" xmlns="http://www.w3.org/2000/svg" xmlns:xlink="http://www.w3.org/1999/xlink" x="0px" y="0px"
	 width="80px" height="80px" viewBox="0 0 80 80" enable-background="new 0 0 80 80" xml:space="preserve">
<rect x="-2.5" y="-2" fill="#E8E8E8" width="84" height="83"/>
<g>
	<path fill-rule="evenodd" clip-rule="evenodd" fill="#3D3D3D" d="M40.053,62.49c-4.217,0-8.435,0.016-12.652-0.006
		c-2.581-0.014-4.92-0.654-6.604-2.807c-0.837-1.071-1.32-2.296-1.396-3.643c-0.265-4.58,0.185-9.052,2.307-13.209
		c1.426-2.796,3.66-4.533,6.859-4.773c0.636-0.047,1.359,0.14,1.937,0.429c1.708,0.854,3.292,1.986,5.052,2.696
		c4.014,1.615,7.889,0.943,11.577-1.151c0.438-0.248,0.835-0.565,1.28-0.798c0.847-0.44,1.697-1.144,2.579-1.198
		c1.678-0.104,3.278,0.472,4.669,1.489c1.604,1.171,2.646,2.78,3.355,4.583c1.526,3.865,2.053,7.904,1.662,12.028
		c-0.326,3.42-2.775,5.826-6.189,6.195c-1.402,0.152-2.825,0.148-4.239,0.158C46.852,62.504,43.453,62.49,40.053,62.49z"/>
	<path fill-rule="evenodd" clip-rule="evenodd" fill="#3D3D3D" d="M51.382,28.546c-0.024,6.261-5.108,11.299-11.375,11.275
		c-6.265-0.021-11.298-5.099-11.277-11.373c0.022-6.268,5.095-11.298,11.375-11.277C46.367,17.192,51.405,22.274,51.382,28.546z"/>
</g>
</svg>
