<?xml version="1.0" encoding="utf-8"?>
<!-- Generator: Adobe Illustrator 16.0.0, SVG Export Plug-In . SVG Version: 6.00 Build 0)  -->
<!DOCTYPE svg PUBLIC "-//W3C//DTD SVG 1.1//EN" "http://www.w3.org/Graphics/SVG/1.1/DTD/svg11.dtd">
<svg version="1.1" id="Layer_1" xmlns="http://www.w3.org/2000/svg" xmlns:xlink="http://www.w3.org/1999/xlink" x="0px" y="0px"
	 width="200px" height="60px" viewBox="0 0 200 60" enable-background="new 0 0 200 60" xml:space="preserve">
<g>
	<g enable-background="new    ">
		<path fill="#D2D3D4" d="M9.438,7.887h10.896c13.16,0,19.882,7.288,19.882,18.113c0,10.613-6.722,18.042-19.882,18.042h-5.802V56
			H9.438V7.887z M20.051,39.585c10.826,0,14.859-5.66,14.859-13.585s-4.033-13.585-14.859-13.585h-5.519v27.17H20.051z"/>
	</g>
	<g enable-background="new    ">
		<path fill="#D2D3D4" d="M52.383,7.887h5.165V56h-5.165V7.887z"/>
	</g>
	<g enable-background="new    ">
		<path fill="#D2D3D4" d="M67.948,7.887h5.519l13.231,32.618c0.99,2.405,2.052,6.509,2.052,6.509s1.062-4.104,2.052-6.509
			l13.161-32.618h5.164L89.104,56.495h-0.849L67.948,7.887z"/>
	</g>
	<g enable-background="new    ">
		<path fill="#D2D3D4" d="M130.562,7.391h0.85L151.789,56h-5.377l-3.255-8.066h-24.339L115.634,56h-5.023L130.562,7.391z
			 M141.318,43.547l-8.491-21.368c-0.92-2.264-1.839-5.73-1.839-5.73s-0.991,3.467-1.911,5.73l-8.491,21.368H141.318z"/>
	</g>
	<g enable-background="new    ">
		<path fill="#D2D3D4" d="M193.39,56h-6.015l-9.269-13.16c-1.628,0.283-3.396,0.424-5.095,0.424h-5.73V56h-5.095V7.887h10.825
			c13.161,0,19.953,7.358,19.953,17.76c0,7.217-3.396,12.877-10.047,15.565L193.39,56z M172.729,38.807
			c10.896,0,14.93-5.59,14.93-13.16c0-7.571-4.104-13.231-14.93-13.231h-5.447v26.392H172.729z"/>
	</g>
	<g enable-background="new    ">
		<path fill="#FFFFFF" d="M7.995,6.444h10.896c13.16,0,19.882,7.288,19.882,18.113c0,10.613-6.722,18.042-19.882,18.042H13.09
			v11.958H7.995V6.444z M18.608,38.143c10.826,0,14.859-5.66,14.859-13.585s-4.033-13.585-14.859-13.585H13.09v27.17H18.608z"/>
	</g>
	<g enable-background="new    ">
		<path fill="#FFFFFF" d="M50.941,6.444h5.165v48.113h-5.165V6.444z"/>
	</g>
	<g enable-background="new    ">
		<path fill="#FFFFFF" d="M66.436,6.444h5.519l13.231,32.618c0.99,2.405,2.052,6.509,2.052,6.509s1.062-4.104,2.052-6.509
			l13.16-32.618h5.165L87.591,55.053h-0.849L66.436,6.444z"/>
	</g>
	<g enable-background="new    ">
		<path fill="#FFFFFF" d="M129.049,5.949h0.849l20.377,48.609h-5.377l-3.255-8.066h-24.34l-3.184,8.066h-5.023L129.049,5.949z
			 M139.803,42.104l-8.49-21.368c-0.92-2.264-1.84-5.73-1.84-5.73s-0.99,3.467-1.91,5.73l-8.49,21.368H139.803z"/>
	</g>
	<g enable-background="new    ">
		<path fill="#FFFFFF" d="M191.876,54.558h-6.015l-9.269-13.16c-1.628,0.283-3.396,0.424-5.095,0.424h-5.73v12.736h-5.095V6.444
			h10.825c13.161,0,19.953,7.358,19.953,17.76c0,7.217-3.396,12.877-10.047,15.565L191.876,54.558z M171.215,37.364
			c10.896,0,14.93-5.59,14.93-13.16c0-7.571-4.104-13.231-14.93-13.231h-5.447v26.392H171.215z"/>
	</g>
	<g enable-background="new    ">
		<path fill="#010101" d="M6.58,5.029h10.896c13.16,0,19.882,7.288,19.882,18.113c0,10.613-6.722,18.042-19.882,18.042h-5.802
			v11.958H6.58V5.029z M17.193,36.728c10.826,0,14.859-5.66,14.859-13.585S28.019,9.558,17.193,9.558h-5.519v27.17H17.193z"/>
	</g>
	<g enable-background="new    ">
		<path fill="#010101" d="M49.526,5.029h5.165v48.113h-5.165V5.029z"/>
	</g>
	<g enable-background="new    ">
		<path fill="#010101" d="M65.091,5.029h5.519l13.231,32.618c0.99,2.405,2.052,6.509,2.052,6.509s1.062-4.104,2.052-6.509
			l13.161-32.618h5.164L86.246,53.638h-0.849L65.091,5.029z"/>
	</g>
	<g enable-background="new    ">
		<path fill="#010101" d="M127.705,4.534h0.85l20.377,48.609h-5.377l-3.255-8.066h-24.339l-3.185,8.066h-5.023L127.705,4.534z
			 M138.461,40.689l-8.491-21.368c-0.92-2.264-1.839-5.73-1.839-5.73s-0.991,3.467-1.911,5.73l-8.491,21.368H138.461z"/>
	</g>
	<g enable-background="new    ">
		<path fill="#010101" d="M190.532,53.143h-6.015l-9.269-13.16c-1.628,0.283-3.396,0.424-5.095,0.424h-5.73v12.736h-5.095V5.029
			h10.825c13.161,0,19.953,7.358,19.953,17.76c0,7.217-3.396,12.877-10.047,15.565L190.532,53.143z M169.871,35.949
			c10.896,0,14.93-5.59,14.93-13.16c0-7.571-4.104-13.231-14.93-13.231h-5.447v26.392H169.871z"/>
	</g>
</g>
</svg>
