<?xml version="1.0" encoding="utf-8"?>
<!-- Generator: Adobe Illustrator 16.0.0, SVG Export Plug-In . SVG Version: 6.00 Build 0)  -->
<!DOCTYPE svg PUBLIC "-//W3C//DTD SVG 1.1//EN" "http://www.w3.org/Graphics/SVG/1.1/DTD/svg11.dtd">
<svg version="1.1" id="Layer_1" xmlns="http://www.w3.org/2000/svg" xmlns:xlink="http://www.w3.org/1999/xlink" x="0px" y="0px"
	 width="200px" height="38px" viewBox="0 11.499 200 38" enable-background="new 0 11.499 200 38" xml:space="preserve">
<path fill="#4FB950" d="M5.09,34.088c0.49,0.951,1.329,1.458,2.438,1.458c1.141,0,1.901-0.54,1.901-1.409
	c0-1.013-0.76-1.362-1.711-1.792l-0.744-0.332c-1.583-0.695-2.661-1.52-2.661-3.199c0-1.644,1.219-2.802,2.994-2.802
	c1.378,0,2.39,0.557,3.071,1.695l-1.282,0.838C8.686,27.85,8.146,27.5,7.338,27.5c-0.871,0-1.377,0.508-1.377,1.25
	c0,0.858,0.523,1.188,1.694,1.711l0.744,0.333c1.631,0.729,2.708,1.474,2.708,3.294c0,1.98-1.52,2.979-3.563,2.979
	c-1.822,0-3.152-0.886-3.88-2.266L5.09,34.088z"/>
<polygon fill="#4FB950" points="22.066,26.154 23.981,26.154 20.165,30.984 24.551,36.923 22.494,36.923 19.056,32.266 
	17.869,33.725 17.869,36.923 16.174,36.923 16.174,26.154 17.869,26.154 17.869,31.49 "/>
<path fill="#4FB950" d="M28.589,33.124v-6.97h1.695v6.873c0,1.725,0.856,2.501,2.424,2.501c1.551,0,2.405-0.776,2.405-2.501v-6.873
	h1.695v6.97c0,2.627-1.773,3.94-4.1,3.94C30.363,37.064,28.589,35.751,28.589,33.124"/>
<path fill="#4FB950" d="M45.059,32.869c2.073,0,2.913-0.982,2.913-2.597c0-1.633-0.855-2.615-2.913-2.615h-0.999v5.212H45.059z
	 M44.061,36.923h-1.694V26.154h2.755c2.961,0,4.594,1.63,4.594,4.118c0,2.469-1.649,4.1-4.594,4.1h-1.061V36.923z"/>
<rect x="54.828" y="26.156" fill="#4FB950" width="1.695" height="10.767"/>
<polygon fill="#4FB950" points="64.209,30.092 64.209,37.17 62.625,37.17 62.625,26.243 62.752,26.243 69.656,33.479 69.656,26.403 
	71.241,26.403 71.241,37.328 71.113,37.328 "/>
<path fill="#4FB950" d="M80.324,29.653l-1.79,4.261h3.547C82.097,33.914,80.324,29.653,80.324,29.653 M77.284,36.923h-1.71
	l4.719-10.99h0.095l4.736,10.99h-1.789l-0.619-1.504h-4.813L77.284,36.923z"/>
<polygon fill="#4FB950" points="129.304,26.154 132.187,26.154 132.187,34.5 136.763,34.5 136.763,36.923 129.304,36.923 "/>
<path fill="#4FB950" d="M145.901,31.351l-1.077,2.5h2.186L145.901,31.351z M143.51,36.923h-2.819l5.241-10.959
	c0.047-0.109,0.143-0.109,0.19,0l5.225,10.959h-2.976l-0.412-0.918h-4.054L143.51,36.923z"/>
<path fill="#4FB950" d="M155.589,35.084l2.091-1.565c0.522,0.648,1.173,1.172,2.248,1.172c0.856,0,1.362-0.255,1.362-0.857
	c0-0.457-0.348-0.68-1.061-0.917l-1.267-0.426c-1.568-0.524-2.677-1.475-2.677-3.248c0-2.121,1.758-3.213,3.676-3.213
	c1.899,0,2.944,0.681,3.577,1.423l-1.646,1.727c-0.443-0.458-0.918-0.777-1.775-0.777c-0.695,0-1.043,0.319-1.043,0.746
	c0,0.411,0.237,0.616,0.759,0.791l1.427,0.476c2.152,0.714,2.88,1.742,2.88,3.263c0,1.979-1.233,3.405-4.084,3.405
	C157.632,37.082,156.256,35.973,155.589,35.084"/>
<path fill="#4FB950" d="M160.262,25.573c-0.038,0.049-0.074,0.049-0.11,0l-1.952-2.562h1.548l0.452,0.476l0.465-0.476h1.548
	L160.262,25.573z"/>
<path fill="#4FB950" d="M176.229,26.154h3.118l-3.579,4.672l4.008,6.097h-3.405l-2.564-3.911c0.015,0-0.603,0.744-0.904,1.11v2.801
	h-2.882V26.154h2.882v4.468L176.229,26.154z"/>
<path fill="#4FB950" d="M192.613,31.539c0-1.694-1.031-3.009-2.836-3.009c-1.807,0-2.834,1.314-2.834,3.009
	c0,1.693,1.027,3.025,2.834,3.025C191.582,34.564,192.613,33.232,192.613,31.539 M183.998,31.539c0-3.248,2.677-5.51,5.779-5.51
	c3.104,0,5.781,2.262,5.781,5.51c0,3.246-2.677,5.527-5.781,5.527C186.675,37.066,183.998,34.785,183.998,31.539"/>
<path fill="#FFFFFF" d="M109.818,17.587c0.248-0.765-0.049-1.845-0.87-1.854c-0.409-0.006-0.71,0.147-0.71,0.147
	c0.451,1.148,0.077,2.549-0.293,3.694l-1.507,4.195C106.438,23.77,109.226,19.404,109.818,17.587 M93.451,45.489l-0.187-0.027
	l7.413-15.326c0,0-2.631-0.659-3.63-2.322c-0.962-1.592-0.281-5.039-0.281-5.039l5.988,3.131c0,0,2.495-5.129,2.803-5.972
	c0.309-0.837,0.757-1.859,0.782-2.515c0.016-0.406-0.025-0.955-0.33-1.265c-0.257-0.264-0.687-0.27-1.015-0.141
	c-0.564,0.223-0.977,0.769-1.348,1.224l-0.38,0.46l-0.043-0.032c0,0,0.437-1.852,0.931-2.527c0.498-0.669,1.06-0.986,1.937-1.027
	c0.345-0.018,0.783,0.078,1.079,0.262c0.237,0.15,0.431,0.343,0.59,0.572c0.065,0.097,0.17,0.257,0.236,0.391
	c0.191-0.204,0.544-0.448,0.912-0.567c0.551-0.186,1.087-0.09,1.412,0.058c0.369,0.159,0.85,0.538,1.053,0.931
	c0.725,1.404,0.345,2.623-0.318,3.976c-1.083,2.207-3.636,6.617-3.636,6.617l10.049,6.956c0.497,1.334,0.35,2.586,0.35,2.586
	s-1.333,1.38-2.246,0.999l-7.279,0.399v10.077l-0.313,0.308l-9.654-1.455L93.451,45.489z"/>
<path fill="#4FB950" d="M101.2,29.073c0.059-0.01,0.892-1.932,0.892-1.932l-3.367-1.739C98.539,26.691,98.523,27.906,101.2,29.073
	 M115.472,34.074l1.214-0.541l-9.921-6.454l-2.369,1.229L115.472,34.074z M109.819,17.586c0.249-0.766-0.05-1.844-0.871-1.853
	c-0.409-0.004-0.71,0.146-0.71,0.146c0.451,1.149,0.077,2.548-0.293,3.695l-1.508,4.193
	C106.438,23.768,109.226,19.404,109.819,17.586 M98.322,45.463h8.129v-8.196l-1.92-1.812l0.106-0.13h10.424v-0.431l-7.762-2.541
	c-0.183,0.427-0.56,0.762-1.046,0.863c-0.796,0.171-1.573-0.337-1.745-1.128l-0.098-0.688l-1.545-0.488L93.45,45.487l-0.188-0.025
	l7.414-15.326c0,0-2.631-0.658-3.63-2.322c-0.961-1.591-0.281-5.038-0.281-5.038l5.987,3.13c0,0,2.493-5.129,2.802-5.972
	c0.31-0.837,0.756-1.86,0.785-2.516c0.014-0.407-0.029-0.955-0.332-1.262c-0.257-0.267-0.687-0.271-1.015-0.142
	c-0.563,0.221-0.977,0.768-1.348,1.222l-0.378,0.461l-0.045-0.034c0,0,0.438-1.852,0.932-2.525c0.497-0.671,1.059-0.986,1.936-1.029
	c0.343-0.018,0.783,0.081,1.079,0.264c0.237,0.149,0.431,0.343,0.59,0.572c0.065,0.097,0.171,0.258,0.237,0.39
	c0.19-0.202,0.543-0.447,0.912-0.566c0.55-0.186,1.084-0.09,1.412,0.06c0.368,0.158,0.849,0.536,1.052,0.929
	c0.725,1.406,0.345,2.625-0.319,3.975c-1.082,2.211-3.635,6.619-3.635,6.619l10.049,6.954c0.497,1.338,0.35,2.588,0.35,2.588
	s-1.333,1.38-2.246,0.999l-7.279,0.399v10.077l-0.315,0.308l-9.654-1.456V45.463z"/>
</svg>
